<?xml version="1.0" encoding="UTF-8"?>
<svg enable-background="new 0 0 200 200" version="1.1" viewBox="0 0 200 200" xmlns="http://www.w3.org/2000/svg">
 <style type="text/css">.st0{fill:#58595B;stroke:#000000;stroke-width:0.75;stroke-miterlimit:10;} .st1{fill:#9B8579;} .st2{fill:none;stroke:#000000;stroke-width:0.25;stroke-miterlimit:10;} .st3{fill:#C2B59B;} .st4{fill:#C2B59B;stroke:#C2B59B;stroke-width:0.25;stroke-miterlimit:10;} .st5{fill:none;} .st6{fill:#414042;stroke:#414042;stroke-width:0.25;stroke-miterlimit:10;} .st7{fill:#58595B;} .st8{fill:#414042;stroke:#414042;stroke-width:0.75;stroke-miterlimit:10;} .st9{fill:#58595B;stroke:#000000;stroke-width:3;stroke-miterlimit:10;} .st10{fill:#414042;} .st11{fill:none;stroke:#000000;stroke-miterlimit:10;} .st12{fill:none;stroke:#000000;stroke-width:2;stroke-miterlimit:10;} .st13{fill:#2B3990;} .st14{fill:#303B69;} .st15{fill:#939598;} .st16{fill:#754C29;} .st17{fill:#603913;} .st18{fill:#58595B;stroke:#000000;stroke-miterlimit:10;} .st19{fill:#414042;stroke:#414042;stroke-miterlimit:10;} .st20{fill:#939598;stroke:#939598;stroke-width:0.75;stroke-miterlimit:10;} .st21{fill:#8B5E3C;} .st22{fill:#3C2415;} .st23{fill:none;stroke:#000000;stroke-width:0.75;stroke-miterlimit:10;} .st24{fill:none;stroke:#000000;stroke-width:0.5;stroke-miterlimit:10;} .st25{stroke:#000000;stroke-width:0.25;stroke-miterlimit:10;} .st26{stroke:#000000;stroke-width:2;stroke-miterlimit:10;} .st27{fill:none;stroke:#231F20;stroke-miterlimit:10;} .st28{fill:#808285;} .st29{fill:#FFFFFF;stroke:#D1D3D4;stroke-miterlimit:10;} .st30{fill:#D1D3D4;stroke:#D1D3D4;stroke-miterlimit:10;} .st31{stroke:#000000;stroke-width:0.5;stroke-miterlimit:10;} .st32{fill:#D1D3D4;} .st33{fill:#E6E7E8;}</style>
 <path class="st0" d="m112.9 138.6c1.8-0.9 4.2-0.7 6.1-0.9 1.2-0.1 2.4-0.3 3.6-0.2-0.3 1.8-1.3 3.8-1.7 5.6s-1.2 3.6-1.5 5.3c-0.2 1.7-0.7 3.3-1 5-0.2 1.3-0.1 2.7-0.8 3.9-1.1-0.2-2.6 0.1-3.9 0 0.3-2.3-1.4-5-2-7.2-0.5-2.1-1.2-4.3-1.6-6.4-0.2-1-0.3-1.9-0.5-2.9-0.2-1.3-0.4-1.6 1.1-1.7 1.5-0.2 4.3-1.7 5.6-1"/>
 <path class="st1" d="m111.7 148.1c0 0.8 0.1 2.1 0.4 2.8 0.4 0.9 1.2 0.3 1.9 0.2 1.5-0.2 3.1-0.4 4.4-1.4-1.4-0.1-2.5-0.4-3.8-0.7-0.5-0.1-1.1-0.3-1.6-0.5s-1.3-0.4-1.7-0.8c0.1 0.3 0.1 1.1 0.4 1.2"/>
 <path class="st2" d="m113.7 155.1c0.8 0.1 1.5 0 2.3-0.1 0.5 0 1.6-0.1 2 0.1-0.1 0-0.1 0-0.2-0.1"/>
 <path class="st2" d="m112.5 152.1c1.1 0.6 2.3 0.9 3.4 1.4 0.7 0.3 1.5 0.6 2.3 0.6"/>
 <path class="st1" d="m112.9 152.1c1.8 0.4 3.2 1.7 5 1.8 0.5-1.2 0.7-2.5 0.7-3.8-0.5 1-2.1 1.1-3 1.4-0.9 0.2-1.9 0.4-2.7 0.6"/>
 <path class="st2" d="m118.8 149.8c-1 0.9-2.3 1.3-3.6 1.6-0.5 0.1-2.6 0.5-2.6 0.8"/>
 <path class="st2" d="m111.1 147.4c1.3 1 3.1 1.5 4.8 1.9 0.5 0.1 2.6 0.6 2.8 0.2"/>
 <path class="st3" d="m112.2 149.8c0.1-0.1 0.2-0.1 0.3 0-0.1 0.4-0.1 1.7 0.4 1.9 0.2 0.1 1.4-0.4 1.7-0.4 0.9-0.2 2.8-0.4 3.4-1.2-0.9 0.8-5.1 1.1-5.5-0.5v0.5"/>
 <path class="st3" d="m112.3 149.9s0.1 0 0.1-0.1h-0.5c0.4 0.2-0.1 1.5 0.4 1.8 0.4 0.3 1 0.1 1.4-0.1 1.4-0.5 3.4-0.4 4.4-1.6 0.2-0.2-0.5-0.1-0.6 0-1 0.7-4.4 1-4.8-0.6-0.1-0.2-0.7 0-0.7 0.2v0.5c0 0.2 0.7 0 0.7-0.2v-0.5c-0.2 0.1-0.5 0.1-0.7 0.2 0.6 2 4.9 1.3 6.1 0.4h-0.6c-0.8 0.8-2.2 0.8-3.2 1.1-0.3 0.1-1.1 0.6-1.4 0.2s-0.2-1.1-0.2-1.6v-0.1c-0.3-0.1-0.5-0.1-0.7 0-0.4 0.4 0 0.5 0.3 0.4z"/>
 <path class="st1" d="m113.2 153.9c-0.1-0.4-0.5-1-0.4-1.4 0.8 0.4 1.8 0.4 2.7 0.8 0.8 0.3 1.5 0.7 2.4 0.9-0.5 0-0.9 0.2-1.5 0.3-0.2 0-0.5 0.1-0.7 0.1-0.3 0-0.4-0.1-0.6-0.1-0.5-0.1-0.8 0.1-1.2-0.2-0.3-0.2-1.2-0.7-1.1-0.9"/>
 <path class="st4" d="m113.1 153.2c0.4 1 0.5 1.9 1.8 1.8 0.5-0.1 0.9-0.1 1.4-0.1s1.1 0.2 1.6 0.1c-0.1-0.2-0.1-0.5-0.1-0.7-0.8 0.1-1.7 0.3-2.6 0.2-0.7-0.1-2.1-1.2-2.3-1.9 0 0.4 0.3 1.1 0.5 1.5"/>
 <path class="st3" d="m118.4 150.5c-0.5 0.7-1.2 1.2-2.1 1.5-0.7 0.2-1.4 0-2.1 0.1 0.6 1.1 2.4 1.6 3.6 1.8 0.3-1 0.5-2.2 0.5-3.3 0 0.1-0.1 0.2-0.2 0.3"/>
 <path class="st5" d="m103.3 154.6"/>
 <path class="st6" d="m111.8 139.3c-0.8 0.2-2 0-2 1.1 0 1 0.3 2 0.5 3 0.2 0.8 0.2 1.6 0.6 2.3 0.3 0.5 0.9 1.4 1.4 1.6l0.1 0.1c-0.7-1.5-1-3.4-1.1-5 0-0.9 0.2-1.4 1.2-1.6 1.4-0.3 2.8-0.7 4.3-1 0.7-0.1 1.5-0.4 2.3-0.3-0.4 1.3-0.7 2.8-1.1 4.2-0.2 0.7-0.4 0.7-1.1 0.6-0.8-0.1-1.6-0.6-2.2-1 0.4 0.6 0.7 1.2 1 1.8 0.3 0.5 0.7 1 1 1.6 0.4 0.9 0.9 1.7 1.3 2.6-0.3-0.1-0.7-0.2-0.9-0.3 0.2 0.2 0.7 0.5 1 0.4 0.5-0.1 0.4-0.5 0.5-1 0.2-1 0.5-1.9 0.8-2.9 0.4-1.3 0.9-2.6 1.3-3.9 0.3-0.9 0.4-1.8 0.9-2.7 0.2-0.3 0.4-0.8 0.4-1.1-0.2-0.2-0.9 0.1-1.2 0.2-0.5 0.1-1.1 0.3-1.6 0.3-1.1 0.1-2.2-0.2-3.2-0.1-0.5 0-1 0.1-1.6 0.2s-1.1 0.2-1.6 0.3c-0.3 0.1-0.6 0.3-1 0.6-0.2 0.1-0.9 0.1-0.7 0.5"/>
 <path class="st6" d="m115.3 142.2c0.4-0.6 1.6-2 2.2-0.9 0.3 0.5 0.3 1.9-0.3 2.3-0.5 0.3-1.4-0.3-1.7-0.7-0.3-0.3-0.4-0.5-0.2-0.8 0.1-0.3 0.4-0.7 0.7-0.7"/>
 <path class="st0" d="m88.3 138.3c-1.8-0.9-4.2-0.7-6.1-0.9-1.2-0.1-2.4-0.3-3.6-0.2 0.3 1.8 1.3 3.8 1.7 5.6s1.2 3.6 1.5 5.3c0.2 1.7 0.7 3.3 1 5 0.2 1.3 0.1 2.7 0.8 3.9 1.1-0.2 2.6 0.1 3.9 0-0.3-2.3 1.4-5 2-7.2 0.5-2.1 1.2-4.3 1.6-6.4 0.2-1 0.3-1.9 0.5-2.9 0.2-1.3 0.4-1.6-1.1-1.7-1.5-0.2-4.3-1.7-5.6-1"/>
 <path class="st1" d="m89.5 147.7c0 0.8-0.1 2.1-0.4 2.8-0.4 0.9-1.2 0.3-1.9 0.2-1.5-0.2-3.1-0.4-4.4-1.4 1.4-0.1 2.5-0.4 3.8-0.7 0.5-0.1 1.1-0.3 1.6-0.5s1.3-0.4 1.7-0.8c-0.1 0.3-0.1 1.1-0.4 1.2"/>
 <path class="st2" d="m87.5 154.8c-0.8 0.1-1.5 0-2.3-0.1-0.5 0-1.6-0.1-2 0.1 0.1 0 0.1 0 0.2-0.1"/>
 <path class="st2" d="m88.7 151.7c-1.1 0.6-2.3 0.9-3.4 1.4-0.7 0.3-1.5 0.6-2.3 0.6"/>
 <path class="st1" d="m88.3 151.7c-1.8 0.4-3.2 1.7-5 1.8-0.5-1.2-0.7-2.5-0.7-3.8 0.5 1 2.1 1.1 3 1.4 0.9 0.2 1.9 0.5 2.7 0.6"/>
 <path class="st2" d="m82.4 149.4c1 0.9 2.3 1.3 3.6 1.6 0.5 0.1 2.6 0.5 2.6 0.8"/>
 <path class="st2" d="m90.1 147c-1.3 1-3.1 1.5-4.8 1.9-0.5 0.1-2.6 0.6-2.8 0.2"/>
 <path class="st3" d="m89 149.4c-0.1-0.1-0.2-0.1-0.3 0 0.1 0.4 0.1 1.7-0.4 1.9-0.2 0.1-1.4-0.4-1.7-0.4-0.9-0.2-2.8-0.4-3.4-1.2 0.9 0.8 5.1 1.1 5.5-0.5v0.5"/>
 <path class="st3" d="m89.3 149.3c-0.3-0.1-0.5-0.1-0.8 0.1-0.1 0-0.2 0.1-0.1 0.2 0 0.3 0.1 1.7-0.3 1.5-0.5-0.1-0.9-0.3-1.3-0.4-1-0.2-2.3-0.3-3.1-1.1-0.2 0.1-0.5 0.2-0.7 0.3 1.3 0.9 5.6 1.3 6.2-0.7-0.2 0.1-0.5 0.1-0.7 0.2v0.5c0 0.2 0.7 0 0.7-0.2v-0.5c0-0.2-0.7 0-0.7 0.2-0.4 1.5-3.8 1-4.8 0.3-0.1-0.1-0.8 0.1-0.7 0.3 0.6 0.6 1.4 0.8 2.2 0.9 0.9 0.2 1.7 0.5 2.6 0.7 0.4 0.1 0.7 0 1-0.2 0.4-0.3 0.2-1.8 0.3-1.8-0.2 0-0.3 0.1-0.5 0.1 0 0 0.1 0 0.1 0.1 0.2-0.1 0.8-0.4 0.6-0.5z"/>
 <path class="st1" d="m88 153.6c0.1-0.4 0.5-1 0.4-1.4-0.8 0.4-1.8 0.4-2.7 0.8-0.8 0.3-1.5 0.7-2.4 0.9 0.5 0 0.9 0.2 1.5 0.3 0.2 0 0.5 0.1 0.7 0.1 0.3 0 0.4-0.1 0.6-0.1 0.5-0.1 0.8 0.1 1.2-0.2 0.3-0.2 1.2-0.7 1.1-0.9"/>
 <path class="st4" d="m88.1 152.8c-0.4 1-0.5 1.9-1.8 1.8-0.5-0.1-0.9-0.1-1.4-0.1s-1.1 0.2-1.6 0.1c0.1-0.2 0.1-0.5 0.1-0.7 0.8 0.1 1.7 0.3 2.6 0.2 0.7-0.1 2.1-1.2 2.3-1.9 0 0.4-0.3 1.1-0.5 1.5"/>
 <path class="st3" d="m82.8 150.1c0.5 0.7 1.2 1.2 2.1 1.5 0.7 0.2 1.4 0 2.1 0.1-0.6 1.1-2.4 1.6-3.6 1.8-0.3-1-0.5-2.2-0.5-3.3 0 0.1 0.1 0.2 0.2 0.3"/>
 <path class="st6" d="m89.4 138.9c0.8 0.2 2 0 2 1.1 0 1-0.3 2-0.5 3-0.2 0.8-0.2 1.6-0.6 2.3-0.3 0.5-0.9 1.4-1.4 1.6l-0.1 0.1c0.7-1.5 1-3.4 1.1-5 0-0.9-0.2-1.4-1.2-1.6-1.4-0.3-2.8-0.7-4.3-1-0.7-0.1-1.5-0.4-2.3-0.3 0.4 1.3 0.7 2.8 1.1 4.2 0.2 0.7 0.4 0.7 1.1 0.6 0.8-0.1 1.6-0.6 2.2-1-0.4 0.6-0.7 1.2-1 1.8-0.3 0.5-0.7 1-1 1.6-0.4 0.9-0.9 1.7-1.3 2.6 0.3-0.1 0.7-0.2 0.9-0.3-0.2 0.2-0.7 0.5-1 0.4-0.5-0.1-0.4-0.5-0.5-1-0.2-1-0.5-1.9-0.8-2.9-0.4-1.3-0.9-2.6-1.3-3.9-0.3-0.9-0.4-1.8-0.9-2.7-0.2-0.3-0.4-0.8-0.4-1.1 0.2-0.2 0.9 0.1 1.2 0.2 0.5 0.1 1.1 0.3 1.6 0.3 1.1 0.1 2.2-0.2 3.2-0.1 0.5 0 1 0.1 1.6 0.2s1.1 0.2 1.6 0.3c0.3 0.2 0.6 0.4 1 0.6 0.2 0.1 0.9 0.1 0.7 0.5"/>
 <path class="st6" d="m85.9 141.8c-0.4-0.6-1.6-2-2.2-0.9-0.3 0.5-0.3 1.9 0.3 2.3 0.5 0.3 1.4-0.3 1.7-0.7 0.3-0.3 0.4-0.5 0.2-0.8-0.1-0.3-0.4-0.7-0.7-0.7"/>
 <path d="m148 122.4c-0.2-2.5-0.6-6.4-3.2-6.9-3.1-0.6-6.1-1-8.9-2.6-1.4-0.8-2.5-1.9-3.3-3.1-0.9-1.3-1-2.8-2-4-0.5-0.7-1.4-0.7-1.6-1.8-0.1-0.8 0.9-1.4 0.8-2.1 0-1.2-2.3-3.9-3.5-3.8-0.9 0.1-2.9 2.3-3.6 2.9-1 0.9-1.9 2-2.8 3 0.1-0.1 0.1-0.2 0.1-0.4-0.1 0.3-0.2 0.5-0.3 0.7-0.2 0.3-0.5 0.6-0.7 0.9l0.7-0.7c-0.4 1-0.5 1.5-0.3 2.8 0.2 1.6-0.1 2.2 1.3 3.5 2.2 2.2 4.1 4.6 6 7.1 0.9 1.2 2.1 2.2 2.4 3.5 0.2 1.2 0.1 2.2 0.4 3.6 0.3 1.2 0.9 3.1 0.5 4.3-0.4 1.5-1.7 2.2-1.8 3.9-0.3 4.4 4.2 1.5 6.8 0.5 3-1.2 6.1-1.2 8.8-3.4 2.6-2.2 4.4-4.6 4.2-7.9z"/>
 <path class="st7" d="m145.9 121.3c-0.1-2.3-0.5-5.9-2.7-6.3-2.7-0.5-5.2-0.9-7.6-2.3-1.2-0.7-2.1-1.8-2.8-2.9-0.8-1.2-0.9-2.6-1.7-3.7-0.5-0.6-1.2-0.7-1.3-1.7-0.1-0.7 0.8-1.3 0.7-1.9 0-1.1-1.9-3.6-3-3.5-0.8 0.1-2.5 2.1-3.1 2.7-0.9 0.8-1.6 1.8-2.4 2.8 0-0.1 0.1-0.2 0.1-0.4-0.1 0.2-0.2 0.5-0.2 0.6-0.2 0.3-0.4 0.5-0.6 0.8l0.6-0.6c-0.3 0.9-0.4 1.4-0.3 2.6 0.2 1.5-0.1 2 1.1 3.3 1.9 2 3.5 4.3 5.1 6.5 0.8 1.1 1.8 2 2 3.2 0.2 1.1 0 2.1 0.3 3.3 0.3 1.1 0.7 2.8 0.4 3.9-0.4 1.4-1.5 2-1.6 3.6-0.3 4.1 3.6 1.4 5.8 0.4 2.6-1.2 5.3-1.2 7.5-3.2 2.2-1.9 3.9-4.2 3.7-7.2z"/>
 <path class="st8" d="m124.1 103.1c0.6-1.2 2-4.6 3.7-3.3 1.4 0.9 0.2 2.4-0.6 3.5-0.9 1.2-2.1 2.1-1.8 3.9 0.2 1.1 1.7 3.9 2.7 4.4-0.2-0.9-0.1-2.2 0-3.1 0.5 1.2 1.3 2.1 1.8 3.3 0.5 1.1 0.5 2.2 0.8 3.3 0.6 2.3 2.1 5.5 4.3 6.5-1.1 1.3-0.7 2.9-0.5 4.3s0.1 0.7-0.6 1.9c-0.7 1.1-0.4 1.7 0.7 1.5 3.9-0.4 4.9-5.8 6.9-8.4 0.1 1.8 0.1 3.8 2 3.9-0.8 0.6-1 1.7-1.6 2.5-0.7 1.1-1.7 1.8-2.7 2.4-1.7 1-3.8 2.3-5.7 3.1-2.1 0.9-4.8 0.8-3.6-2.3 0.8-2.2 1.3-3.5 1.1-5.9-0.2-2.3-0.9-4.3-2.1-6.2-0.6-1-1.1-2.2-1.8-3.1-0.7-0.8-1.7-1.5-2.4-2.3-1.1-1.3-2.4-3.6-2.3-5.5 0-1 0.5-2.4 1-3.3 0.1-0.2 1.4-2.6 1.4-2.6l0.1-0.1c0.1 0.3 0 0.5-0.1 0.7"/>
 <path class="st8" d="m131.8 108c1.3 1.1 0 2.5 0.1 3.8 0 1 1.3 1.8 2.2 2.4 1.9 1.3 3.1 3 3.1 5.3 1.1-1 2-1.9 3-3 0.8 1.7 0 3.3-0.6 4.9 1.4-0.2 3.4-2.4 4.1-3.7 1.2-2.1-1-2.3-2.7-2.5-1.9-0.2-3.2-0.8-4.8-1.8-0.9-0.6-1.8-1.4-2.5-2.3-0.4-0.6-0.8-2.3-1.6-2.2"/>
 <path d="m126.9 99.3v-0.7c1.8 1.7 4.2 3.7 2 6.2 0.6 1.5 1.9 3 2.7 4.5s1.8 2.9 3.1 4.1c1.6 1.5 3.1 1.8 5.2 2.1 1.4 0.2 4-0.8 4.9 0.7-2.4-2.3-6.2-1.2-8.5-3.2-2.5-2.2-3.2-5.7-5.5-8.1 2.5-1.7-1-7.9-3.8-6.1"/>
 <path d="m50.4 127.1c-0.3-2.5-0.6-6.4 1.9-7.3 3-1.1 5.8-2.1 8.3-4.2 1.2-1 2.1-2.3 2.7-3.7 0.7-1.5 0.5-2.9 1.2-4.3 0.4-0.8 1.3-1 1.2-2.1 0-0.8-1.1-1.2-1.2-1.9-0.2-1.1 1.6-4.2 2.8-4.4 0.9-0.1 3.3 1.7 4.1 2.2 1.2 0.7 2.2 1.6 3.3 2.5-0.1-0.1-0.1-0.2-0.1-0.4 0.2 0.2 0.3 0.4 0.4 0.6 0.3 0.2 0.6 0.5 0.9 0.7l-0.8-0.5c0.6 0.9 0.7 1.3 0.8 2.7 0.1 1.7 0.5 2.2-0.6 3.7-1.8 2.6-3.2 5.3-4.7 8.1-0.7 1.3-1.7 2.6-1.7 3.9 0 1.2 0.3 2.2 0.2 3.6-0.1 1.2-0.3 3.2 0.3 4.3 0.7 1.4 2.1 1.8 2.5 3.5 1.1 4.3-3.8 2.3-6.6 1.7-3.2-0.7-6.2-0.1-9.2-1.8-3-1.6-5.3-3.6-5.7-6.9z"/>
 <path class="st7" d="m52.3 125.6c-0.3-2.3-0.6-5.9 1.5-6.7 2.5-1 5-1.8 7.1-3.7 1-0.9 1.7-2.1 2.3-3.3 0.6-1.3 0.4-2.7 1-3.9 0.3-0.7 1.1-0.9 1-1.9 0-0.7-1-1.2-1.1-1.8-0.2-1.1 1.3-3.9 2.3-4 0.8-0.1 2.9 1.6 3.5 2.1 1 0.7 1.9 1.5 2.8 2.4-0.1-0.1-0.1-0.2-0.1-0.4 0.1 0.2 0.2 0.4 0.4 0.6 0.3 0.2 0.5 0.5 0.8 0.7l-0.7-0.5c0.5 0.8 0.7 1.3 0.7 2.5 0.1 1.5 0.4 2-0.5 3.4-1.5 2.3-2.7 4.8-3.8 7.3-0.6 1.2-1.4 2.3-1.4 3.5 0 1.1 0.3 2 0.3 3.4-0.1 1.1-0.2 2.9 0.3 4 0.6 1.3 1.8 1.7 2.2 3.3 1 4-3.3 2-5.7 1.4-2.8-0.7-5.4-0.2-8-1.8-2.5-1.6-4.5-3.6-4.9-6.6z"/>
 <path class="st8" d="m70.4 103.8c-0.8-1.1-2.8-4.1-4.3-2.6-1.2 1.2 0.2 2.5 1.2 3.3 1.1 1 2.4 1.7 2.5 3.5 0 1.1-1 4.2-1.9 4.8 0-0.9-0.3-2.2-0.5-3.1-0.2 1.2-0.9 2.3-1.2 3.5s-0.1 2.3-0.1 3.4c-0.2 2.4-1.1 5.8-3 7.1 1.3 1.1 1.2 2.7 1.2 4.2 0 1.4 0.1 0.7 0.9 1.7 0.9 0.9 0.7 1.6-0.4 1.6-3.9 0.3-5.9-4.8-8.3-7 0.3 1.8 0.6 3.8-1.2 4.2 0.9 0.4 1.3 1.5 2 2.2 0.9 0.9 2 1.5 3.1 1.9 1.9 0.7 4.2 1.6 6.2 2 2.2 0.5 4.9-0.1 3.1-2.9-1.2-2-1.9-3.2-2.1-5.7-0.2-2.3 0.1-4.4 0.9-6.5 0.4-1.1 0.6-2.4 1.3-3.4 0.6-1 1.4-1.7 1.9-2.7 0.8-1.5 1.7-4 1.3-5.8-0.2-1-0.9-2.3-1.5-3.1-0.1-0.2-1.8-2.3-1.9-2.3l-0.1-0.1c0 0.3 0.1 0.4 0.2 0.7"/>
 <path class="st8" d="m63.8 110c-1.1 1.3 0.5 2.5 0.6 3.7 0.1 1-1 2.1-1.7 2.8-1.6 1.6-2.5 3.5-2.1 5.8-1.3-0.8-2.3-1.5-3.4-2.4-0.4 1.8 0.6 3.2 1.5 4.7-1.4 0-3.8-1.8-4.7-2.9-1.5-1.9 0.6-2.4 2.2-2.9 1.8-0.5 3.1-1.3 4.4-2.6 0.8-0.8 1.5-1.7 2-2.7 0.3-0.6 0.4-2.4 1.1-2.4"/>
 <path d="m66.9 100.6c0-0.2-0.1-0.5-0.2-0.7-1.5 2-3.5 4.4-0.9 6.5-0.3 1.6-1.3 3.3-1.9 4.9s-1.3 3.2-2.3 4.6c-1.3 1.7-2.8 2.3-4.8 3-1.3 0.4-4.1-0.1-4.7 1.6 1.9-2.7 5.8-2.3 7.8-4.7 2.1-2.6 2.2-6.2 3.9-9-2.8-1.2-0.5-8 2.6-6.7"/>
 <path class="st9" d="m80 95.3c-1.5 3-2.4 6.3-3.9 9.4-1 2.3-2.2 4.5-3.4 6.7-0.5 1-1 2.1-1.5 3.1-1.3 2.5-2.5 4.8-2.6 7.8-0.1 1.9 0.3 3.7 0.3 5.7 0.1 2.7 0.4 7.9-1.8 9.7 1.8-1.4 3.1-0.6 4.9 0.5 6.9 4.3 14.3 8.8 22.5 9 3.3 0.1 6.5-1.1 9.7-1.7 3-0.5 5.9-0.2 8.8-1.2 6.1-2 12.6-4.2 16.5-10.3 2-3.1 1.3-5.9 0.6-9.3-1.1-5.1-2.6-9.8-5.1-14.3-1.6-2.9-3.3-5.6-4.9-8.5-1.5-2.5-2.6-5.7-4.5-7.8-2.2-2.3-3.9-4.4-6.9-5-3.8-0.8-8.4-0.2-12.3 0.2-2.8 0.3-5.2 0.4-7.9 0-1.6-0.2-3.4-1.1-5-1.1-1.9-0.1-2.4 1.8-3.3 3.5-0.9 1.8-0.5 3.7-1.4 5.4 0-0.3 0.1-0.5 0.2-0.8"/>
 <path class="st10" d="m106 89.7c-2.5 1.9-4.9 3.9-7.5 5.6-1.7 1.1-4.1 1.5-5.6 2.5 2.1 1 6.6 0.7 8.8 0.1 2.6-0.6 4.8-2.3 7.5-1 2.2 1 4.1 3.7 2 5.9-1.1 1.2-6.5 2.1-5.3-0.8-2 1.9-3 4.9-5.5 6.5 5.4 3.7 10.3-0.2 15-3.7 1.2-0.9 2.6-1.3 3.8-2.2 1.6-1.1 1.2-1.4 0.4-3.2-1.2-2.6-2.2-5-4.5-6.8-1.9-1.5-3.8-2.3-6.1-3-2.4-0.7-3.7 1-5.6 2.4"/>
 <path class="st10" d="m77.3 103.9c1-2.1 3.3-5.1 3.5-7.6 1.2 0.1 2.8 2 3.7 3 0.8 0.9 1.3 2.1 2.2 2.9 0.5 0.5 1.1 0.8 1.6 1.3-1.7-1.5-5.6 2.8-6.4 4.2-0.9 1.6-2.2 4.3-1.2 6.2 0.9 1.7 4.1 1.7 5.7 1.3 2.3-0.5 4.1-1.8 5.8-3.4 3.1 2.7 8 1.7 11.3-0.4-2.1 2.8-6 4.2-9 5.3-2.6 0.9-5.1 2-7.8 2.3-5.1 0.6-10.2 0.7-15.2 1h-1.6c1.9-3.7 4.3-7.2 5.7-11.3 0.8-2.5 1.2-6.9 3.8-8.1 0.1 0.1 0.2 0.3 0.3 0.4"/>
 <path class="st11" d="m77.9 101.4c1.2-1.8 1.3-3.9 2.2-5.8 1.2 0 2.3 2.2 3.2 3.1 2.1 1.9 4.6 3.6 6.9 5.2 1.4 1 13.3 8.9 13.8 5.9"/>
 <path class="st11" d="m107 88.7c-2.8 1.6-5.1 4-7.8 5.8-1.2 0.8-4 3.4-5.3 2.4"/>
 <path class="st11" d="m85.1 145c1.6-4.4 1.9-9.3 0.9-14 1 5.1 1.2 9.5-0.4 14.4 0.8-2.1 1.1-4.1 1.2-6.4 0.1-2 0.6-5.6-0.4-7.3 0.6 2.5 0.6 5.4 0.4 8-0.1 1.5-0.3 5.2-1.2 6.1"/>
 <path class="st10" d="m92.8 117.9c2.1-1.2 4.6-2 6.7-3 1.9 3.7 11.3 1.6 14.1 0.5 1.9-0.7 4.3-2 5.5-3.9 1.2-2 0.3-4.2-0.3-6.3 1.1 0.5 2 1.5 3.1 2.1 0.9 0.6 1.9 1 2.5 2 0.6 0.9 0.9 2.1 1.3 3.1 0.6 1.3 1.2 2 2.1 3.1-2.3 2.2-5.3 2.3-8.1 2.9-2.4 0.5-4.9 0.7-7.4 1-5 0.6-10.6 1-15.4-0.7-1.2-0.4-2.5-0.5-3.7-1 1-0.3 1.8-0.7 2.8-0.8"/>
 <path class="st12" d="m129.1 120c2.8 3.4 2.5 6.1 3 10.3 0.2 1.5 0.8 4 2.8 4.1-2.7 0.2-5.6 2.2-8.1 3.2-2.7 1.2-5.1 2.9-7.7 4.3-2.7 1.4-8 3.9-10.3 1.8 0.1 0.3 0.4 0.4 0.6 0.6"/>
 <path class="st13" d="m96.2 120.8c-1.9 4.5-2 9.6-2.7 14.4-0.3 2.2-0.8 4.3-1.6 6.4-0.5 1.2-1.8 2.2-0.9 3.4 1.1 1.5 3.9 1.8 5.3 1.9 1.9 0.1 3.8 0.3 5.6 0s4-1 4.1-3.4c0.1-2.5-0.2-5.1-0.1-7.6 0.1-3.2-0.8-5.2-2.3-8-1.2-2.3-2.8-4.9-4.4-7-0.8-1-1.5-1.5-2.7-0.7-0.9 0.7-0.9 2-1.2 3.1"/>
 <path class="st11" d="m68.3 119.5c4.5 0.8 8.5-0.2 13.1-0.5s8.8-0.5 13.2-2c6.2-2.1 11.8-6 17.5-9.5 1-0.6 8.3-5.7 8.5-5.4"/>
 <path class="st11" d="m90.7 117.9c3.6 1 7.3 1 11 1.2 4 0.3 8.1 0.6 12.1 0.5 2.7-0.1 5.5-0.4 8.2-0.8 1.4-0.2 2.7-0.4 4-0.8 1-0.3 2.2-0.9 3.1-1.5"/>
 <path class="st10" d="m69.5 126.5c-0.9-1.3-0.3-5.4 1-6.1 0-0.3 0.1-0.4 0.2-0.6 1.5 1.3 4.1 0.1 5.7-0.2 1.7-0.3 3.9-0.4 5.6-0.2-2.3 0.9-5.3 2.3-6.4 5.1-0.9 2.4-0.7 5.7 0 8 0.8 2.6 2.8 3.9 4.7 5.2 1.3 0.9 2.1 1.4 2.7-0.6 0.4-1.3 0.4-2.7 0.5-4.1 0-0.9-0.1-2.1 0.1-2.9 1.4 2.3 1.7 5.5 1.6 8.4s-0.4 6.8-3.2 5c-2.1-1.3-4-2.6-6-4-1.7-1.2-4.2-2.2-5.2-4.5-0.7-1.6-0.7-3.7-1.1-5.5-0.3-1.8-0.8-3.4-0.6-5.3 0.1 0.2 0.1 0.2 0.2 0.3"/>
 <path class="st10" d="m108.3 128.7c-2.3 2.1-2.3 5-1.2 7.6 0.5 1.3 0.9 2.5 1.4 3.8 0.4 0.9 0.7 2.7 1.3 3.3 1.4 1.4 6.3-0.2 8-0.8 2.4-0.9 5-2.4 6.3-4.7 0.4-0.8 0.7-1.5 0.7-2.4-0.4 1.6-0.5 2.6-1.7 4.1 0.9-1.4 4.1-2.4 5.5-3.5 1.7-1.3 3.5-2.5 3.7-4.8 0.5-4.2-1.6-8-3.4-11.6 0 2.6 0.8 5.1-0.7 7.6-1.2 2-3.6 3-5 5-1.7 2.6-3.6 6.4-7 6.8-1.3 0.2-2.8-0.5-2.5-2.2s2.9-1.6 1.9-0.2c1.8-3.2 1.9-6.7-1.7-8.6-0.6-0.3-3.8-1.7-4.3-1.5s-2 3.9-2.2 4.5"/>
 <path class="st10" d="m80.3 116.9c1.9-1.1 3.9-1.7 5.8-2.7 1.6-0.9 3.1-2.4 4.5-3.6 1.2-1 2.5-2.3 3.4-3.6-0.7 3.6 0.3 6.1-3.2 8.1-1.4 0.8-2.8 1.3-4.3 1.7-0.6 0.1-1.6 0.3-2.2 0.2-0.8-0.2-1.1-0.9-2-0.8 0.1 0.1 0.3 0.3 0.4 0.5"/>
 <path class="st14" d="m93.5 146.4c3.1-4 1.5-8.3 0.7-12.6-0.4-2.3 0.1-4.2 0.8-6.4 0.4-1.2 1.1-5.2 2.2-5.7 0.4 1.8 2.2 3.8 3.4 5.1 1.5 1.6 2.4 3.2 2.6 5.3-0.4-1.2-1.1-2.6-2.4-2.8-1.1-0.2-2.2 0.4-2.5 1.6-0.5 2 1 4.2 1.5 6.1-0.3-0.5-0.8-0.7-1.3-0.7-0.1 1.5 0.2 3.1 0 4.6-0.2 1.3-0.7 2.5-1 3.7 1.4-0.2 3.8-1.3 4.5-2.7-0.3 1.6-1.3 4.5-2.7 5-1.9 0.7-4.1-0.3-5.9-0.4 0.3-0.6 1.1-2 1.5-2.3"/>
 <path class="st15" d="m76.1 127.6c-1.1 2.9-1.7 5.3 0.7 7.4 2 1.7 4.3 2.3 6.6 3.3-3.5-3-5.1-7.4-6.9-11.4-0.6 1.1-0.6 2.4-0.9 3.5"/>
 <path class="st15" d="m120.8 129c-1.7 1.3-1.5 4-2.4 5.8-0.8 1.5-1.9 2.5-3.1 3.5 4.8-1 5-5.5 8.3-8.2 1.5-1.3 3.5-2.1 3.7-4.5 0.2-1.6-0.4-4.2-1-5.6-0.5 1.8-0.3 3.1-2 4.3-1.4 1-2.8 0.9-4.3 0.5 1.1 1.2 0.5 4.7-0.5 5.8 0.2 0.4 0.3 0.1 0.6 0.1"/>
 <path class="st15" d="m112.8 109.2c-3 0.7-6.3 2.6-8.4 5.1-0.9 1.1-1.6 1.7 0.1 2 2 0.4 4.3-0.8 6-1.8 1-0.6 7.6-5.4 6.6-7-0.6-0.9-6.7 2.1-7.1 2.7"/>
 <path class="st16" d="m93.4 136.9c0.2-1.7 0.4-3.5 0.7-5.2 1.2 1.9 3.9 2.3 5.8 2.4 1.7 0.1 3.3-0.2 4.7-1.2h0.1c0.1 0.7 0.4 1.3 0.5 2s0 1.3 0 2c-2.2 0.8-5.1 0.2-7.4-0.1-1.5-0.2-2.8-0.5-4.1-1 0.3-0.2 0.4-0.7 0.4-1.1"/>
 <path class="st17" d="m93.9 137.8c0.2-1.7 0.4-3.5 0.7-5.2 1.2 1.9 3.9 2.3 5.8 2.4 1.7 0.1 3.3-0.2 4.7-1.2h0.1c0.1 0.7 0.4 1.3 0.5 2s0 1.3 0 2c-2.2 0.8-5.1 0.2-7.4-0.1-1.5-0.2-2.8-0.5-4.1-1 0.3-0.2 0.4-0.7 0.4-1.1"/>
 <path class="st15" d="m94.8 109.1c-1.4 2.2-5.2 4-6 6.7 1.5 1.3 5.2-0.3 6.8-1 2-0.9 4.6-1.7 6-3.8-1.7-0.2-3.7-1.5-5.4-2.2-1.6-0.7-3.8-1.8-5.1-3.2 1 1.5 1.9 3.3 2.9 4.8-0.1 0-0.3 0-0.4 0.1v0.8"/>
 <path class="st18" d="m97 118.5c0 3.7-1.7 7-2.5 10.5-0.6 2.8 0.1 5.3 0.5 8 0.4 2.3 0.2 4.7-0.6 6.8-0.8 2.3-4.1 4.7-3.7 7.6-0.4-1.3-1.5-2.5-2.1-3.6s-1.2-2.3-1.8-3.3c0.1 0.3 0 0.5 0 0.8"/>
 <path class="st18" d="m98.8 121.4c-0.3-0.5-0.6-1.1-0.9-1.6 0 1.4 2 3.1 2.7 4.4 0.9 1.5 1.6 3.1 2.3 4.7 1 2.2 1.8 4.2 2.1 6.6 0.6 4.9-0.8 9.6 1.1 14.5 0.7-1.2 2.2-1.6 3.2-2.7 1-1 1.4-2.3 1.8-3.5 0.2 0.2 0.3 0.3 0.4 0.6"/>
 <path class="st10" d="m87 144.4c0.4-1.4 0.9-2.5 1.6-3.7 0.5-0.8 0.5-1.2 1.2-0.3 0.6 0.9 0.8 3.7 0.6 4.7 0.7-1.7 1.5-2.7 1.6-4.6 0.1-1.8-0.2-3.5-0.9-5.2 0.7 1 1.3 2 1.9 3 0.1-1.7-1.1-3.5-1.3-5.2s0.1-3.1 0.8-4.5c0.9-1.9 2.9-6.9 0-8 0.9 0.1 2-0.3 2.8-0.5l0.1 0.1c-0.4 2-0.7 4.2-0.9 6.2-0.3 2.5-0.8 4.7-0.3 7.3 0.8 4.7 0.9 9-1.7 13.1-0.8 1.2-1.2 2.3-1.6 3.7-0.7-1.5-2-3.3-2.9-4.6-0.3-0.4-1.2-1.2-1.3-1.8-0.1-0.7 0.5-1.9 1.1-1.8"/>
 <path class="st19" d="m106.6 137.6c-0.5 3.4 0.8 6.8 0.2 10.2 0.9-2 3.7-2.8 2.7-5.7-0.4-1.1-1.4-2.1-1.9-3.1-0.5-0.9-0.8-2-1.3-2.8 0.1 1 0.6 2.2 0.6 3.2"/>
 <path class="st20" d="m101 122.6c-0.7-0.8-1.8-1.7-2.3-2.8 1.4-0.8 4.6 0 5.9 0.9 1.8 1.1 0.6 3.9 1.2 5.8-0.5-0.6-1.1-1.6-1.8-1.8-0.5 1.8 1.2 4.1 1.9 5.8 0.7 1.9 0.9 4 0.8 6.1-0.7-2.8-1.9-5.5-3.1-8.1-1-2.3-2.6-4.5-3.5-6.8v0.3"/>
 <path class="st21" d="m96 136.9c-0.5-0.3-0.7-1.5 0-1.4 0.4 0 0.8 0.7 1.2 0.9 0.7 0.5 2.2 0.5 3.1 0.3-0.6 1-4.5 1.1-4.4-0.5 0.1 0 0.1 0.1 0.1 0.1"/>
 <path class="st22" d="m100.4 134.3c-1.2-0.8-2.1-1-2.4 0.7-0.1 0.7-0.2 1.9 0 2.7 0.9 0 1.7 0.4 2.6 0.3 0.3-0.8 0.5-2.1 0.5-2.9 0-0.7 0-0.6-0.5-1.1-0.4-0.3-1-0.8-1.3-0.2"/>
 <path class="st17" d="m100 135.7c0.2 1-0.8 0.7-0.9 1.2-0.2 0.6 0.6 0.7 1 0.6 0.2-0.3 0.5-1.7-0.1-1.5"/>
 <path class="st11" d="m95 137c1.6 0.8 3.4 1 5.2 1.2 1 0.1 4.4 0.5 4.9-0.7"/>
 <path class="st23" d="m94.5 132c1.8 1 3.5 1.8 5.5 2 1.8 0.2 3.4-0.3 4.6-1.4"/>
 <path class="st23" d="m98.4 133.9c-0.8 1.2-0.6 3.3-0.2 4.6"/>
 <path class="st24" d="m100.5 138.2c0-0.9 1.1-3.7 0.3-4.1"/>
 <path class="st25" d="m75.8 126.7c-0.8 2.9-1.1 5.7-1.3 8.7-0.1 1.2-0.1 2.5 0.1 3.7 0.1 0.6 0.2 2 0.6 2.4-0.7-1-2.5-2.5-3.8-2.5 0 0.1 0.1 0.2 0.1 0.3"/>
 <path class="st2" d="m74.9 141c0.3 0.2 0.7 0.4 1 0.6-0.3-0.3-0.7-0.5-1-0.6 0.4 0.2 0.8 0.5 1.2 0.7-0.3-0.4-0.7-0.6-1.2-0.5 0.3 0.3 1 0.5 1.5 0.6-0.1 0-0.6-0.2-0.8-0.2 0.5 0.2 1 0.1 1.5 0.2-0.8-0.1-2.1-1.3-2.3-1.9"/>
 <path class="st26" d="m122.8 141.3c-0.1 0.2-0.2 0.4-0.4 0.5 0.6-0.7 1.1-1.5 1.6-2.3 0.6-1 1.2-2.2 1.5-3.4 0.4-1.3 0.4-2.7 0.8-4-0.8 3.1-1.7 6.5-3.5 9.2z"/>
 <path class="st10" d="m85.3 142.9c1.2-4.7 2-9.9 0.1-14.5-0.5-1.3-3.4-0.5-2.9 0.8 1.8 4.5 1 9.4-0.1 14-0.4 1.3 2.6 1 2.9-0.3z"/>
 <path class="st10" d="m71.3 134.7c0.4-1.7 0.8-3.4 0.8-5.2 0-0.9-2.7-0.2-2.9 0.6-0.5 2.4-1.7 5.1 0.9 6.6 0.5 0.3 3.1-0.2 2.6-1.1-1.4-2.6-1.8-6.8-0.2-9.5 0.7-1.1-2.2-0.8-2.7 0-1.7 2.9-1.5 7.4 0 10.3 0.9-0.4 1.7-0.7 2.6-1.1-2-1.1-0.7-3.9-0.3-5.6-1 0.2-1.9 0.4-2.9 0.6 0 1.6-0.4 3.2-0.7 4.8-0.3 1 2.6 0.5 2.8-0.4z"/>
 <path class="st10" d="m130 135.7c1.2-0.1 2.2-0.8 3.1-1.5 0.3-0.2 0.6-0.6 0.5-1-0.2-0.6-0.5-1.3-0.5-2s-0.7-0.9-1.3-0.8c-0.5 0-1.6 0.4-1.6 1.1 0 0.9 0.2 1.7 0.5 2.5 0.2-0.3 0.3-0.6 0.5-1-0.2 0.2-0.5 0.4-0.7 0.6-0.1 0.1-0.2 0.2-0.4 0.2 0.1 0 0.2 0 0.1-0.1-0.6 0-1.5 0.4-1.6 1.1 0 0.8 0.9 1 1.4 0.9z"/>
 <path class="st7" d="m63.9 100.5c-2.3-1-1.2-6.3-0.8-8.1 1-4.8-0.2-9.9-0.4-14.7-0.3-5.9 2.3-11.5 5.5-16.3 1.4-2.1 4-3.6 5.1-5.8 0.7-1.3 0.9-3.5 2.3-4.3 0.8-0.5 1.7-0.3 2.5-0.8 1-0.6 1.9-1.4 2.9-2 2-1.3 4.3-2.4 6.5-3.4 4-1.9 8.4-3.3 12.9-3.9 3-0.4 6-0.9 9-1.4 2-0.3 4.7-1.5 6.3-0.1 1.1 1 2.1 2.2 3 3.4s2 2 3.1 3c1.4 1.1 2.2 2.6 3.4 3.9 1 1.1 1.7 1.7 2.2 3.2 1.2 3.8 1.2 8 2.1 12 0.7 2.9 1.3 6.3 2.8 8.9 1.4 2.4 2.7 4.8 3.6 7.5 0.8 2.2 1.7 4.2 2.7 6.3 1.1 2.2 1.1 4.5 1.6 6.9 0.4 1.8 1.4 3.4 2.1 5.1 0.7 1.6 1.6 2.8 1.3 4.6-0.9 4.9-5.1 8.6-9.2 10.9-6.2 3.6-13.2 6.3-20.4 7.1-3.8 0.4-7.6-0.2-11.4 0-2.1 0.1-4 0.4-6.2 0.2-2.4-0.3-4.8-0.5-7.2-0.8-4.3-0.5-8.7-0.9-13-1.3-2.8-0.3-5.6-0.8-8.1-2.1-2-1.1-3.5-2.4-5.2-4.1-0.9-0.9-2.1-1.7-2.7-2.8-0.8-1.7-0.6-3.8-0.6-5.6-0.1-2.6 0.1-4 1.4-6.2 0.9-1.6 1.4-3.3 1.9-5.2 0.2-0.9 0.4-1.9 0.5-2.9"/>
 <path d="m65.2 100c-2.8-2.1-0.5-8.4-0.3-11.3 0.4-5.9-1.5-11.5-0.1-17.4 1.3-5.7 4.7-9.3 8.3-13.5 1-1.1 2.9-5.6 3.9-5.9 1.9-0.6 3.1-1.5 4.8-2.7 5.7-4.1 13.2-6.2 20.1-7.2 2.5-0.3 5.1-0.7 7.6-1.2 4.6-0.9 6.1 1.3 8.7 4.2 3.6 4.1 7.2 6.4 8.4 12.2 1.1 5.5 1.4 10.9 3.5 16.2 1.8 4.5 4.2 9.1 6.3 13.6 2.2 4.8 2.7 9.9 5 14.7 3 6.4-4.7 11.7-9.4 14.4-7.1 3.9-15 6.2-23.1 5.9-12.2-0.4-24.7 0-36.7-2.8-3.6-0.9-6.1-3.5-8.8-5.9-2.3-2.1-2.2-4.5-2.3-7.3-0.1-4.8 3.1-9.1 3.7-14 0.1-1.2-2.8-0.7-2.9 0.3-0.6 5.1-3.8 9.2-3.7 14.4 0 2.6 0 4.7 1.5 6.8 1.7 2.4 4.8 4.5 7.3 6 4.9 3 12.4 2.6 17.9 3.2 3.7 0.4 7.3 0.8 11 1.2 3.9 0.4 7.9-0.3 11.9-0.1 11.6 0.5 25.3-3.9 33.6-12.3 3.4-3.5 4.4-7.3 2.4-11.6-1.4-2.9-2.2-5.4-2.7-8.6-0.7-3.9-3-7.6-4.3-11.3-1.2-3-3.1-5.7-4.3-8.7s-1.7-6.4-2.2-9.5c-0.5-3.3-0.7-6.7-2.1-9.8-0.9-2.1-3.5-4.5-5.1-6.1-2.5-2.4-5.5-7.8-9.6-7.2-6.6 0.9-13.5 1.8-19.9 3.6-2.9 0.8-5.6 2.1-8.3 3.3-2.9 1.3-5.6 3.9-8.6 4.8-1.2 0.4-2.6 0.7-3.2 1.9-1.6 3.1-3.1 5.4-5.6 8-9.5 9.7-5 23.3-6.6 35.1-0.3 2-0.4 4.5 1.4 5.8 0.7 0.5 3.3-0.6 2.5-1.2z"/>
 <path class="st27" d="m61.6 100.8c0 0.9 2.3 0.3 3 0.4"/>
 <path d="m77.1 101c-1.5-0.7-0.8-4.4-0.5-5.6 0.7-3.3-0.1-6.9-0.3-10.3-0.2-4.1 1.4-8 3.5-11.3 0.8-1.3 2.1-2.1 2.9-3.3s1.3-2.3 2.3-3.4c2.1-2.2 4.7-3.5 7.3-4.7 2.7-1.3 5.1-3 7.8-4.5 1-0.6 2-1.1 2.8-2-0.3 1.1 0.7 2.2 1.3 3.1 1.5 2 3.1 2.2 5.2 3 2 0.7 4 1.7 5.7 3.2 3.3 2.9 2.9 7.3 3.7 11.4 0.4 2 0.9 4.4 1.8 6.2 0.9 1.7 1.7 3.3 2.3 5.2 0.5 1.5 1.1 2.9 1.7 4.4 2.8 6.4-1.1 13.9-5.7 17.7-1.8 1.5-3.7 3.2-5.4 4.9-1 1-2.4 3.1-2.5 4.7-1-1.2-1.7-2.8-3.2-3.2-1.8-0.4-4.3-0.2-6.2-0.1-1.3 0.1-2.6 0.3-3.9 0.2-1.5-0.2-3.1-0.4-4.6-0.5-2.8-0.3-5.5-0.6-8.3-0.9-1.8-0.2-3.6-0.5-5.1-1.5-1.3-0.8-2.3-1.7-3.3-2.8-0.6-0.6-1.4-1.2-1.7-2-0.5-1.2-0.4-2.6-0.4-3.9-0.1-1.8 0.1-2.8 0.9-4.3 0.6-1.1 0.9-2.3 1.2-3.6 0.1-0.7 0.2-1.3 0.3-2"/>
 <path class="st28" d="m76.4 52.5c3-1 4.9-3.1 7.5-4.6 2.2-1.2 4.1-2.8 6.5-3.7 2.1-0.8 4.7-0.6 6.8 0.1 2.2 0.7 3.5 2.6 5.9 2.5 0.9 0 1.9 0 2.8-0.6-2.4 4.1-4.6 9.2-9.8 9.7s-10.2 0.8-14.6 3.9c-5.2 3.6-8.9 8.3-11.4 14.1-0.4 0.9-1.9 5.4-0.2 5.6 2 0.2 3.4-6.2 3.5-7.7 0.8 4.3 1.4 10.2-1.7 13.8-2.9 3.4-5.3 7.2-4.5 11.9 0.4 2.3 2.5 4.7 5 4.1-0.6 0.8-1.8 1.5-2.8 1.3-0.9-0.2-1.8-1.2-2.8-1.6-2.1-1-3.1-2.8-3.4-5-0.3-2.3 0.5-4.9 0.9-7.2 0.5-2.7 0.3-5.4 0.1-8.1-0.2-3.3 0-6.4 0.6-9.6 0.6-3 1.8-5 3.4-7.6 1.4-2.3 3.3-3.7 5-5.6 1.6-1.8 2.4-4 4-5.7 0.6-0.6 1.3-0.9 1.8-1.5-0.2 0.3-0.2 0.5-0.3 0.8h0.4"/>
 <path class="st15" d="m134.1 80.7c-1.2-1.4-1.8-2.5-2.4-4.2-0.3-0.8-0.6-1.8-1.2-2.3-0.3 4.9 0.8 9.7 2 14.3 0.5 2 0.6 4.3 0.3 6.4-0.2 1.7-1 5.2-2.7 2.5 1.1 2.2-0.1 5.5-0.9 7.7-1 2.6-3.1 4.8-5.3 6.3-1.8 1.2-4.1 2.7-5.1 4.7s-2 4-4.1 5c-0.8 0.4-1.2 0.4-2-0.1 1.4 1.4 4.5 1 6.3 0.9 2.9-0.1 5.4-1.6 8-2.8 4-1.9 8.5-4.6 10.9-8.5 1.4-2.3 2.6-4.2 2.7-7 0.1-2.9-1.1-5.3-2.5-7.7 0.4 1 1 2.3 0.5 3.4-0.7 1.4-1.7 0.5-2-0.7-0.5-2.1 1.6-3.8 1.6-5.5 0-1.1-0.7-2.5-0.9-3.6-0.3-1.2-0.5-2.3-0.9-3.4-0.8-2.5-1.9-4.3-3.2-6.4-0.5-0.7-0.6-1.4-0.8-2.1l0.3 0.6"/>
 <path class="st19" d="m62.3 111.6c-1.6-1.8-1.8-3.5-1.8-5.7 0-1.1 0.3-3.4 1.1-4.2 1.3 0.9 2.1 2.9 3.1 4.1 1.3 1.8 2.9 3.4 4.5 4.8 2 1.7 4 3.2 6.4 4.5 1.1 0.6 2.2 1.2 3.4 1.5 0.9 0.3 1.8 0.3 2.7 0.7-0.9-0.4-2.5 0.1-3.5-0.1 0.9 1.4 3.8 2.3 5.4 2.9 2.1 0.7 4.4 0.1 6.4 0.8-2.1 1.3-5.2 0.6-7.4 0.1-6.6-1.4-14.3-0.9-18.9-7-0.7-0.9-3.9-3.8-3-5"/>
 <path class="st19" d="m115.4 44.5c-1.4-1.3-2.5-2.4-4.5-2.3-1.3 0.1-2.4 0.7-3.8 0.8-3.1 0.2-6.1 1.8-9.2 0.3 0.8 1.2 3 2 4.3 2.4 1.6 0.5 3-0.2 4.6-0.1-0.6 1.5-0.7 3-1.5 4.5s-2 2.6-3 3.9c1.1-0.5 2.8 3.9 3.4 4.7 1.8 2.6 5 3.8 8.1 4.3 2.7 0.4 5-0.1 7.3 1.8 1.4 1.2 1.9 3.6 2.4 5.4 1.1-1 0.3-4.2 0-5.6-0.5-2.1-0.8-3.8-1.9-5.7 0.6 1.5 1.9 3 2.7 4.6 0.9 1.7 1.3 3.6 1.8 5.5 0.4 1.5 0.7 3.4 0.8 4.9 0.1 1.1-0.4 2.2-0.4 3.3 0-1.6 0.9-3.1 1-4.7 0-1.7-0.3-3.4-0.5-5.1-0.4-3.6-0.9-7.3-1.6-10.9-0.6-3-2.3-6.3-4.7-8.3-2-1.7-4.2-2.6-6.3-3.9-0.4-0.2-0.8-0.4-1.1-0.6-0.1 0.2 0 0.2 0.1 0.4"/>
 <path class="st28" d="m71.6 72.5c-1.8 2.2-3.4 4.4-2.9 7.4 0.5 2.7 3 1.7 4.2-0.1 1-1.5 1.6-4.3 0.1-5.8-1.1-1.1-3.1-0.7-3.4 1"/>
 <path class="st19" d="m65.9 68.3c-0.7-1.9 2-5.1 3.2-6.4 1.3-1.3 2.7-2.6 4.6-2.9-0.2 1.4-1 2.8-1.3 4.3-0.2 1.4 0.1 2.9 0.5 4.3 0.9 3 1.6 6.3 4.6 7.7-3.3 1.2-6.9 1.7-9-1.6-3.1 2.1-1.5 9.5-0.4 12.2-1.4-3.2-2.4-6.5-2.9-9.9-0.4-2.2-1.2-8 1.1-9.5"/>
 <path class="st28" d="m82.9 67.6c-1.1 1.2-2.5 0.3-3.6-0.3 0.4 0.9 0.5 1.9 1.4 2.5-0.6 0.5-1.9 0.5-2.4 1s-0.4 2.2-0.4 2.9c1.5-0.7 3.3-2.9 4.3-4.2 1.3-1.9 2.6-3.4 4.4-4.9 1.8-1.6 3.7-2.3 5.7-3.2 1.4-0.6 2.8-1.2 4.1-1.9s2.8-1.3 4-2.1c1-0.6 1.7-1.5 1.9-2.6-1 1.7-3.3 2.3-5 3.1-2.4 1.2-4.7 2.2-7.1 3.2-2.1 0.8-4 1.9-5.5 3.7-0.8 1-1.7 3.1-2.5 3.5"/>
 <path class="st10" d="m74.2 54.9c-1.9 1.5-4.3 4.2-5.7 6.3 1.3 0 3.8-1.6 4.8-2.5 1.3-1 2.2-2.4 3.2-3.6 1.7-2.1 4-4.7 6.9-4.2-0.7 0.4-0.3 1.3 0.2 1.8-0.1-1.3 2.4-2.6 3.2-3.4 1.1-1 2.1-1.9 3.6-2.4 2.2-0.7 6.4 0.2 6.5 3.2 0.4-2.2-0.3-5-2.8-5.6-2.3-0.5-4.9 0.6-7 1.4-4 1.6-9.8 3.8-12.1 7.8-0.6 1.2-1.5 3.3-3 3.5-0.1 0.2 0 0.3 0.2 0.5"/>
 <path class="st10" d="m136.8 88.7c0.5 2.9 0.9 4.9 0 7.7-0.8 2.6-2.7 4.4-4 6.5l0.1 0.1c2.6-0.8 5.6-3 6.7-5.8 0 2.9 0.1 5.4-0.5 8.2-0.4 1.8-1.8 6.7-3.9 6.7 1.9 0.9 5.3-0.7 6.2-2.8-0.1 0.2-0.1 0.3-0.3 0.5 2-2.5 0.8-7.9 0.1-10.8-0.8-3.4-2.1-9.8-5.2-11.5 0.7 0.5 1.4 1.7 1.3 2.6"/>
 <path class="st28" d="m120 52.8c-3.1-3.3-5.6-0.8-5.5 2.9 0 0.7-0.1 2 0.2 2.6 0.4 0.7 1.8 1.1 2.5 1.5 0.8 0.4 1.9 1.3 2.8 1 1.1-0.4 0.7-1.6 0.6-2.6-0.3-2.9 2.5-2.4 2.5 0.2 1.5-2.8-2-8.4-5-6.3"/>
 <path class="st10" d="m70.9 92.3c-0.8 1.1-2.4 2.7-2 4 0.3 1.1 1.5 2.3 2.6 2.7 2.5 0.8 3.8-2.1 3.9-4 0.1-2 0.1-4.2-1.5-5.6-1.2-1-1.5-0.5-1.9 0.8-0.3 1.1-0.5 1.8-1 2.7-0.4 0.6-0.6 1.2-1.2 1.6-0.2-0.1-0.2-0.3-0.3-0.5"/>
 <path class="st7" d="m63.9 100.5c-2.3-1-1.2-6.3-0.8-8.1 1-4.8-0.2-9.9-0.4-14.7-0.3-5.9 2.3-11.5 5.5-16.3 1.4-2.1 4-3.6 5.1-5.8 0.7-1.3 0.9-3.5 2.3-4.3 0.8-0.5 1.7-0.3 2.5-0.8 1-0.6 1.9-1.4 2.9-2 2-1.3 4.3-2.4 6.5-3.4 4-1.9 8.4-3.3 12.9-3.9 3-0.4 6-0.9 9-1.4 2-0.3 4.7-1.5 6.3-0.1 1.1 1 2.1 2.2 3 3.4s2 2 3.1 3c1.4 1.1 2.2 2.6 3.4 3.9 1 1.1 1.7 1.7 2.2 3.2 1.2 3.8 1.2 8 2.1 12 0.7 2.9 1.3 6.3 2.8 8.9 1.4 2.4 2.7 4.8 3.6 7.5 0.8 2.2 1.7 4.2 2.7 6.3 1.1 2.2 1.1 4.5 1.6 6.9 0.4 1.8 1.4 3.4 2.1 5.1 0.7 1.6 1.6 2.8 1.3 4.6-0.9 4.9-5.1 8.6-9.2 10.9-6.2 3.6-13.2 6.3-20.4 7.1-3.8 0.4-7.6-0.2-11.4 0-2.1 0.1-4 0.4-6.2 0.2-2.4-0.3-4.8-0.5-7.2-0.8-4.3-0.5-8.7-0.9-13-1.3-2.8-0.3-5.6-0.8-8.1-2.1-2-1.1-3.5-2.4-5.2-4.1-0.9-0.9-2.1-1.7-2.7-2.8-0.8-1.7-0.6-3.8-0.6-5.6-0.1-2.6 0.1-4 1.4-6.2 0.9-1.6 1.4-3.3 1.9-5.2 0.2-0.9 0.4-1.9 0.5-2.9"/>
 <path d="m65.2 100c-2.8-2.1-0.5-8.4-0.3-11.3 0.4-5.9-1.5-11.5-0.1-17.4 1.3-5.7 4.7-9.3 8.3-13.5 1-1.1 2.9-5.6 3.9-5.9 1.9-0.6 3.1-1.5 4.8-2.7 5.7-4.1 13.2-6.2 20.1-7.2 2.5-0.3 5.1-0.7 7.6-1.2 4.6-0.9 6.1 1.3 8.7 4.2 3.6 4.1 7.2 6.4 8.4 12.2 1.1 5.5 1.4 10.9 3.5 16.2 1.8 4.5 4.2 9.1 6.3 13.6 2.2 4.8 2.7 9.9 5 14.7 3 6.4-4.7 11.7-9.4 14.4-7.1 3.9-15 6.2-23.1 5.9-12.2-0.4-24.7 0-36.7-2.8-3.6-0.9-6.1-3.5-8.8-5.9-2.3-2.1-2.2-4.5-2.3-7.3-0.1-4.8 3.1-9.1 3.7-14 0.1-1.2-2.8-0.7-2.9 0.3-0.6 5.1-3.8 9.2-3.7 14.4 0 2.6 0 4.7 1.5 6.8 1.7 2.4 4.8 4.5 7.3 6 4.9 3 12.4 2.6 17.9 3.2 3.7 0.4 7.3 0.8 11 1.2 3.9 0.4 7.9-0.3 11.9-0.1 11.6 0.5 25.3-3.9 33.6-12.3 3.4-3.5 4.4-7.3 2.4-11.6-1.4-2.9-2.2-5.4-2.7-8.6-0.7-3.9-3-7.6-4.3-11.3-1.2-3-3.1-5.7-4.3-8.7s-1.7-6.4-2.2-9.5c-0.5-3.3-0.7-6.7-2.1-9.8-0.9-2.1-3.5-4.5-5.1-6.1-2.5-2.4-5.5-7.8-9.6-7.2-6.6 0.9-13.5 1.8-19.9 3.6-2.9 0.8-5.6 2.1-8.3 3.3-2.9 1.3-5.6 3.9-8.6 4.8-1.2 0.4-2.6 0.7-3.2 1.9-1.6 3.1-3.1 5.4-5.6 8-9.5 9.7-5 23.3-6.6 35.1-0.3 2-0.4 4.5 1.4 5.8 0.7 0.5 3.3-0.6 2.5-1.2z"/>
 <path class="st27" d="m61.6 100.8c0 0.9 2.3 0.3 3 0.4"/>
 <path d="m77.1 101c-1.5-0.7-0.8-4.4-0.5-5.6 0.7-3.3-0.1-6.9-0.3-10.3-0.2-4.1 1.4-8 3.5-11.3 0.8-1.3 2.1-2.1 2.9-3.3s1.3-2.3 2.3-3.4c2.1-2.2 4.7-3.5 7.3-4.7 2.7-1.3 5.1-3 7.8-4.5 1-0.6 2-1.1 2.8-2-0.3 1.1 0.7 2.2 1.3 3.1 1.5 2 3.1 2.2 5.2 3 2 0.7 4 1.7 5.7 3.2 3.3 2.9 2.9 7.3 3.7 11.4 0.4 2 0.9 4.4 1.8 6.2 0.9 1.7 1.7 3.3 2.3 5.2 0.5 1.5 1.1 2.9 1.7 4.4 2.8 6.4-1.1 13.9-5.7 17.7-1.8 1.5-3.7 3.2-5.4 4.9-1 1-2.4 3.1-2.5 4.7-1-1.2-1.7-2.8-3.2-3.2-1.8-0.4-4.3-0.2-6.2-0.1-1.3 0.1-2.6 0.3-3.9 0.2-1.5-0.2-3.1-0.4-4.6-0.5-2.8-0.3-5.5-0.6-8.3-0.9-1.8-0.2-3.6-0.5-5.1-1.5-1.3-0.8-2.3-1.7-3.3-2.8-0.6-0.6-1.4-1.2-1.7-2-0.5-1.2-0.4-2.6-0.4-3.9-0.1-1.8 0.1-2.8 0.9-4.3 0.6-1.1 0.9-2.3 1.2-3.6 0.1-0.7 0.2-1.3 0.3-2"/>
 <path class="st28" d="m76.4 52.5c3-1 4.9-3.1 7.5-4.6 2.2-1.2 4.1-2.8 6.5-3.7 2.1-0.8 4.7-0.6 6.8 0.1 2.2 0.7 3.5 2.6 5.9 2.5 0.9 0 1.9 0 2.8-0.6-2.4 4.1-4.6 9.2-9.8 9.7s-10.2 0.8-14.6 3.9c-5.2 3.6-8.9 8.3-11.4 14.1-0.4 0.9-1.9 5.4-0.2 5.6 2 0.2 3.4-6.2 3.5-7.7 0.8 4.3 1.4 10.2-1.7 13.8-2.9 3.4-5.3 7.2-4.5 11.9 0.4 2.3 2.5 4.7 5 4.1-0.6 0.8-1.8 1.5-2.8 1.3-0.9-0.2-1.8-1.2-2.8-1.6-2.1-1-3.1-2.8-3.4-5-0.3-2.3 0.5-4.9 0.9-7.2 0.5-2.7 0.3-5.4 0.1-8.1-0.2-3.3 0-6.4 0.6-9.6 0.6-3 1.8-5 3.4-7.6 1.4-2.3 3.3-3.7 5-5.6 1.6-1.8 2.4-4 4-5.7 0.6-0.6 1.3-0.9 1.8-1.5-0.2 0.3-0.2 0.5-0.3 0.8h0.4"/>
 <path class="st15" d="m134.1 80.7c-1.2-1.4-1.8-2.5-2.4-4.2-0.3-0.8-0.6-1.8-1.2-2.3-0.3 4.9 0.8 9.7 2 14.3 0.5 2 0.6 4.3 0.3 6.4-0.2 1.7-1 5.2-2.7 2.5 1.1 2.2-0.1 5.5-0.9 7.7-1 2.6-3.1 4.8-5.3 6.3-1.8 1.2-4.1 2.7-5.1 4.7s-2 4-4.1 5c-0.8 0.4-1.2 0.4-2-0.1 1.4 1.4 4.5 1 6.3 0.9 2.9-0.1 5.4-1.6 8-2.8 4-1.9 8.5-4.6 10.9-8.5 1.4-2.3 2.6-4.2 2.7-7 0.1-2.9-1.1-5.3-2.5-7.7 0.4 1 1 2.3 0.5 3.4-0.7 1.4-1.7 0.5-2-0.7-0.5-2.1 1.6-3.8 1.6-5.5 0-1.1-0.7-2.5-0.9-3.6-0.3-1.2-0.5-2.3-0.9-3.4-0.8-2.5-1.9-4.3-3.2-6.4-0.5-0.7-0.6-1.4-0.8-2.1l0.3 0.6"/>
 <path class="st19" d="m62.3 111.6c-1.6-1.8-1.8-3.5-1.8-5.7 0-1.1 0.3-3.4 1.1-4.2 1.3 0.9 2.1 2.9 3.1 4.1 1.3 1.8 2.9 3.4 4.5 4.8 2 1.7 4 3.2 6.4 4.5 1.1 0.6 2.2 1.2 3.4 1.5 0.9 0.3 1.8 0.3 2.7 0.7-0.9-0.4-2.5 0.1-3.5-0.1 0.9 1.4 3.8 2.3 5.4 2.9 2.1 0.7 4.4 0.1 6.4 0.8-2.1 1.3-5.2 0.6-7.4 0.1-6.6-1.4-14.3-0.9-18.9-7-0.7-0.9-3.9-3.8-3-5"/>
 <path class="st19" d="m115.4 44.5c-1.4-1.3-2.5-2.4-4.5-2.3-1.3 0.1-2.4 0.7-3.8 0.8-3.1 0.2-6.1 1.8-9.2 0.3 0.8 1.2 3 2 4.3 2.4 1.6 0.5 3-0.2 4.6-0.1-0.6 1.5-0.7 3-1.5 4.5s-2 2.6-3 3.9c1.1-0.5 2.8 3.9 3.4 4.7 1.8 2.6 5 3.8 8.1 4.3 2.7 0.4 5-0.1 7.3 1.8 1.4 1.2 1.9 3.6 2.4 5.4 1.1-1 0.3-4.2 0-5.6-0.5-2.1-0.8-3.8-1.9-5.7 0.6 1.5 1.9 3 2.7 4.6 0.9 1.7 1.3 3.6 1.8 5.5 0.4 1.5 0.7 3.4 0.8 4.9 0.1 1.1-0.4 2.2-0.4 3.3 0-1.6 0.9-3.1 1-4.7 0-1.7-0.3-3.4-0.5-5.1-0.4-3.6-0.9-7.3-1.6-10.9-0.6-3-2.3-6.3-4.7-8.3-2-1.7-4.2-2.6-6.3-3.9-0.4-0.2-0.8-0.4-1.1-0.6-0.1 0.2 0 0.2 0.1 0.4"/>
 <path class="st28" d="m71.6 72.5c-1.8 2.2-3.4 4.4-2.9 7.4 0.5 2.7 3 1.7 4.2-0.1 1-1.5 1.6-4.3 0.1-5.8-1.1-1.1-3.1-0.7-3.4 1"/>
 <path class="st19" d="m65.9 68.3c-0.7-1.9 2-5.1 3.2-6.4 1.3-1.3 2.7-2.6 4.6-2.9-0.2 1.4-1 2.8-1.3 4.3-0.2 1.4 0.1 2.9 0.5 4.3 0.9 3 1.6 6.3 4.6 7.7-3.3 1.2-6.9 1.7-9-1.6-3.1 2.1-1.5 9.5-0.4 12.2-1.4-3.2-2.4-6.5-2.9-9.9-0.4-2.2-1.2-8 1.1-9.5"/>
 <path class="st28" d="m82.9 67.6c-1.1 1.2-2.5 0.3-3.6-0.3 0.4 0.9 0.5 1.9 1.4 2.5-0.6 0.5-1.9 0.5-2.4 1s-0.4 2.2-0.4 2.9c1.5-0.7 3.3-2.9 4.3-4.2 1.3-1.9 2.6-3.4 4.4-4.9 1.8-1.6 3.7-2.3 5.7-3.2 1.4-0.6 2.8-1.2 4.1-1.9s2.8-1.3 4-2.1c1-0.6 1.7-1.5 1.9-2.6-1 1.7-3.3 2.3-5 3.1-2.4 1.2-4.7 2.2-7.1 3.2-2.1 0.8-4 1.9-5.5 3.7-0.8 1-1.7 3.1-2.5 3.5"/>
 <path class="st10" d="m74.2 54.9c-1.9 1.5-4.3 4.2-5.7 6.3 1.3 0 3.8-1.6 4.8-2.5 1.3-1 2.2-2.4 3.2-3.6 1.7-2.1 4-4.7 6.9-4.2-0.7 0.4-0.3 1.3 0.2 1.8-0.1-1.3 2.4-2.6 3.2-3.4 1.1-1 2.1-1.9 3.6-2.4 2.2-0.7 6.4 0.2 6.5 3.2 0.4-2.2-0.3-5-2.8-5.6-2.3-0.5-4.9 0.6-7 1.4-4 1.6-9.8 3.8-12.1 7.8-0.6 1.2-1.5 3.3-3 3.5-0.1 0.2 0 0.3 0.2 0.5"/>
 <path class="st10" d="m136.8 88.7c0.5 2.9 0.9 4.9 0 7.7-0.8 2.6-2.7 4.4-4 6.5l0.1 0.1c2.6-0.8 5.6-3 6.7-5.8 0 2.9 0.1 5.4-0.5 8.2-0.4 1.8-1.8 6.7-3.9 6.7 1.9 0.9 5.3-0.7 6.2-2.8-0.1 0.2-0.1 0.3-0.3 0.5 2-2.5 0.8-7.9 0.1-10.8-0.8-3.4-2.1-9.8-5.2-11.5 0.7 0.5 1.4 1.7 1.3 2.6"/>
 <path class="st28" d="m120 52.8c-3.1-3.3-5.6-0.8-5.5 2.9 0 0.7-0.1 2 0.2 2.6 0.4 0.7 1.8 1.1 2.5 1.5 0.8 0.4 1.9 1.3 2.8 1 1.1-0.4 0.7-1.6 0.6-2.6-0.3-2.9 2.5-2.4 2.5 0.2 1.5-2.8-2-8.4-5-6.3"/>
 <path class="st10" d="m70.9 92.3c-0.8 1.1-2.4 2.7-2 4 0.3 1.1 1.5 2.3 2.6 2.7 2.5 0.8 3.8-2.1 3.9-4 0.1-2 0.1-4.2-1.5-5.6-1.2-1-1.5-0.5-1.9 0.8-0.3 1.1-0.5 1.8-1 2.7-0.4 0.6-0.6 1.2-1.2 1.6-0.2-0.1-0.2-0.3-0.3-0.5"/>
 <path class="st29" d="m83.1 85c-3.4-4.6-1.7-12.8 2.2-16.8 4-4.2 11.5-4.1 16.9-3.9 6.1 0.3 10.6 3.4 14.3 8.5 2.4 3.4 2.2 8 2 12.1-0.2 3.6-0.6 6.8 0.1 10.4 0.5 2.8 3.7 7.2 2.4 10-1.4 3.1-5.3 3.9-8.1 3.9-1.8 0-3.2 0.7-4.5-0.8-1-1.1-0.9-3.9-3-1.8 1.5 4.2-2.7 4.1-5.7 4-1.2-0.1-4.6 0.3-5.4-0.3-1.2-0.8-1.2-4-1.7-5.3-0.9 0.7-2.2 0.2-3.2-0.2 0.1 2-0.6 3.2-1.7 4.9-1.7-0.5-3.4-0.5-5-0.9-2-0.6-1.8-0.7-2.4-3.1-0.6-2.5-1.4-5.2-1.6-7.8s-0.3-5.6 0.2-8.1c0.5-3 3-5.6 3.4-8.4 0.2 0.7 0.2 1.3 0.2 2"/>
 <path class="st30" d="m105.2 88.2c0.9 2 1.5 3.9 2 6 0.2 1.1 0.4 2.1-0.1 3.1 0.9 1 1.7 1.5 2 2.8 0.3 1.1 0.4 2.5 0.2 3.6 1.4-0.1 2.9-1.9 3.6-2.9 1.1-1.5 2.2-2.9 3-4.5 0.4-0.8 0.6-1 0.5-1.9-0.2-1-0.3-2-0.4-2.9-0.2-1.6-0.4-3.3-0.7-4.9-0.3-1.7-0.4-3.8-1.3-5.4-1.5 3.5-4.5 6.7-8.5 7 0 0.4 0.5 1.9 0.7 2.2"/>
 <path class="st31" d="m84.8 86.3c-1.6-3.2 0.9-8.1 4.9-6.9 2.3 0.7 3.7 5.6 3.8 7.7s-0.1 2.5-2.3 2.8c-1.3 0.1-3.7 0-4.9-0.4-2.6-0.8-3.5-5.9-1.3-7.8"/>
 <path class="st31" d="m112.3 86.3c1.6-3.2-0.9-8.1-4.9-6.9-2.3 0.7-3.7 5.6-3.8 7.7s0.1 2.5 2.3 2.8c1.3 0.1 3.7 0 4.9-0.4 2.6-0.8 3.5-5.9 1.3-7.8"/>
 <path d="m99.3 96.1c0.7-0.6 1.2-1.9 2.3-1.8 0.9 0.1 0.9 0.5 0.7 1.2-0.2 0.8-1.6 2.1-2.5 1.7 0.2-0.8 0.2-1.7 0.9-2.1"/>
 <path d="m97.3 96.1c-0.4-0.6-0.7-1.9-1.2-1.8s-0.5 0.5-0.4 1.2c0.1 0.8 0.9 2.1 1.4 1.7-0.1-0.8-0.1-1.7-0.5-2.1"/>
 <path class="st32" d="m81.3 108c-1.6 0.7-2.1-2.2 0-2.3 1.2 0 2.1 1.1 3.5 0.9 2.2-0.3 4.4-3.9 5.2-5.8 0.2 0.4 0.7 0.7 1.2 0.7-0.2 1.4-0.8 3-1.2 4.5-0.3 0.9-1.3 3.1-2.2 3.6s-3.1-0.5-4.2-0.6c-1.3-0.2-2.9 0.1-4.1-0.4 0-0.7 0.1-1.8 0.6-2.1"/>
 <path class="st32" d="m98.1 108.1c-2.3-1.3-1.2-5.2-0.8-7.1-0.6 0.4-1 0.8-1.7 1s-1.1 0.1-1.6 0.5c-0.4 0.3-0.7 1.1-1 1.9v-0.1c-0.1 0.3-0.2 0.5-0.3 0.8v0.7c0 1 0 2 0.1 2.9 0.1 0.5 0.1 1.7 0.5 2.1 0.5 0.4 1.8 0.1 2.4 0.2 3.6 0 6.8 0.2 9.9-1.6-1.8 0.7-5.8-0.4-7.5-1.3z"/>
 <path class="st32" d="m109 109.4c-1.6-0.4-2.4-2.6-3-3.8 2.5 3.3 6.5 3.5 9.9 1.6 3.6-2 1.9-5.9 0.5-9 1.5-0.9 1.7-2.8 2.5-4.2-0.5 4.7 4.7 8.7 0.6 12.9-1.5 1.5-3.5 2-5.5 2.5-1.1 0.3-2.1 0.7-3.3 0.7-1.4 0.1-1.7-0.5-2.6-1.5-0.6-0.6-1.2-1.2-1.9-1.6 0.2 0.2 0.4 0.1 0.6 0.2"/>
 <path class="st32" d="m84.4 68.4c-2 1.3-2.9 5.2-3.2 7.3-0.3 2.2 0.3 4.5 1.1 6.3-0.1-4 1.2-7.9 5.1-10.2 1.3-0.8 8.2-2.9 8.5-0.3-1.7-0.6-1.1 1.8-0.6 2.5 1.7 2.3 6.3 3 9.1 3 2.5 0 8.6-1.2 5.8-4.7 0.4 0.7 1.1 0.7 1.9 1 1.3 0.5 1.9 1.1 2.8 2.2 0.6 0.7 1.2 1.4 1.6 2.2 0.3 0.7 0.3 1.4 0.8 1.9 1.3-2.8-0.7-6.1-2.4-8.5-1.5-2.2-4.1-3.7-6.5-5-2.8-1.5-5.2-2-8.5-2-1.6 0-3.3 0.2-4.9 0.4-1.5 0.2-2.9 0.9-4.4 1.2-3.2 0.6-8 3.1-8.7 6.4"/>
 <path class="st30" d="m78.8 96.1c-0.8-2.3-0.4-5.2 0.2-7.5 0.2-0.9 0.6-1.8 1-2.6 0.6-0.9 1.5-1.5 2.1-2.3 0.2 3.3-0.7 6.4 0 9.6 0.5 2.4 2.4 5.7 5.1 5.9-1.3 1-1.6 3.2-1.8 4.7-0.1 0.8-0.2 1.5-0.1 2.3 0.1 1 0 1.2-1.1 1.1-4.4-0.4-4.7-5-5.4-8.5-0.3-1.6-0.1-3.2-0.6-4.7"/>
 <path class="st33" d="m80.8 93.5c-0.5-1.4-0.4-3.6 0.2-5 0.5-1.2 1.4-2.2 2.1-3.3-0.2 1.3-0.2 2.6-0.2 4 0.1 1.6 0.6 2.9 1 4.4 0.5 2.4 2.3 4.8 4.7 5.2-2.5 0.7-3.1 5.2-2.4 7.3 0.7-0.5 1.5-1.4 2.1-2.1 0.5-0.7 0.6-1.9 1.3-2.5 0.1 1.7-0.6 3.8-1.9 5-1.2 1.1-2.6 2.1-3.5 0-0.7-1.5-0.5-3-0.6-4.6s-1.2-2.7-2.1-3.9c-1.1-1.6-1.9-5-1.1-6.7"/>
 <path class="st33" d="m97.2 101.1c-1.6 1.1-1.6 3.5-1.1 5.2 0.4 1.5 1.8 2.1 3.1 2.5 1.4 0.5 2.6 1 4.1 1.3 2.2 0.4 2.2-1.1 1.8-2.8-0.1-0.6-0.3-1.1-0.6-1.7 0.3 0.6 0 1.8-0.6 2.2-1 0.5-2.4-0.5-3.1-1-2.1-1.5-2.3-3.3-2.4-5.7-0.1 0-0.1 0-0.2-0.1-0.5 0.4-1.8 0.5-2.2 1"/>
 <path class="st30" d="m84.4 92.9c-0.7-0.5-1.7-2-1.2-2.8 0.6-1 1.4 0.1 2.3 0.6 1.6 0.7 4.4 1.3 6.2 0.8-1.2 1-3.4 1.7-5.1 1.9-1.5 0.1-3.8-0.7-3.2-2.1"/>
 <path class="st33" d="m108.9 93c-0.8-0.8-1.9-1.9-2.2-2.8 1.5 1.4 3.9 0.5 5.6 0 0.7-0.2 1.9-0.9 2.7-0.5 0.7 0.3 1 1.6 0.8 2.1-0.6 1.7-3.3 2-5 1.6-0.9-0.2-4.3-1.9-3.6-2.2"/>
</svg>
